<svg width="250" height="250" viewBox="0 0 250 250" fill="none" xmlns="http://www.w3.org/2000/svg">
<path fill-rule="evenodd" clip-rule="evenodd" d="M230.958 91.0089C231.357 90.6414 231.686 90.1946 231.92 89.6876C252.624 44.7498 249.982 6.46319 249.794 4.08146L249.791 4.03826L249.789 4.01296C249.618 1.98413 248.01 0.375712 245.981 0.204811C245.942 0.201713 245.791 0.19088 245.535 0.176388C240.84 -0.13686 203.674 -1.89675 160.313 18.0787C159.807 18.3102 159.361 18.6376 158.994 19.0355C130.165 32.5902 98.9805 55.7091 73.5727 95.0383L40.9471 92.8626C39.1308 92.6834 37.4516 93.8084 36.789 95.4999L11.5202 160.08C10.841 161.813 11.3952 163.784 12.8786 164.913C13.6203 165.48 14.5119 165.763 15.3991 165.763C16.278 165.763 17.1574 165.488 17.8991 164.93L38.8725 149.202L49.8507 151.397L66.4015 167.948L61.8679 176.094C56.3552 173.379 49.9629 172.711 43.7256 174.291C35.3805 176.412 28.5558 182.103 25.0061 189.915L0.375019 244.109C-0.345676 245.692 -0.00827715 247.555 1.22071 248.779C2.0166 249.579 3.083 250 4.16648 250C4.74997 250 5.33736 249.875 5.89156 249.625L60.0833 224.989C67.8908 221.443 73.5822 214.619 75.7028 206.273C77.3377 199.839 76.5733 193.231 73.6316 187.596L81.365 182.916L98.6032 200.154L100.797 211.126L85.0689 232.096C83.9522 233.587 83.9566 235.637 85.0855 237.121C85.8896 238.179 87.1269 238.766 88.4018 238.766C88.9101 238.766 89.4228 238.671 89.9223 238.487L154.501 213.218C156.192 212.556 157.258 210.872 157.138 209.06L154.962 176.421C194.285 151.015 217.403 119.835 230.958 91.0089ZM169.53 23.4376C202.858 9.32588 231.695 8.25211 241.623 8.39192C241.711 13.9637 241.456 25.4732 238.779 40.3225C236.652 52.0924 232.998 65.973 226.783 80.6923L169.53 23.4376ZM161.405 27.1035L223.116 88.8164C207.754 120.686 177.802 159.358 119.478 186.401C114.277 188.81 108.934 191.091 103.466 193.235L89.2597 179.029L123.049 157.696C124.257 156.93 124.99 155.601 124.99 154.171V129.173C124.99 129.017 124.982 128.863 124.965 128.712C124.738 126.627 122.969 125.002 120.824 125.002H92.7509C92.1783 125.002 91.6229 125.12 91.1138 125.338C90.2688 125.698 89.5513 126.333 89.0928 127.164L88.5833 128.089L70.6111 160.384L56.764 146.532C59.518 139.507 62.4968 132.691 65.6845 126.113C91.7853 72.3486 128.189 43.0339 161.405 27.1035ZM53.8744 190.458L57.8055 183.394C55.5061 182.329 52.9862 181.783 50.4086 181.783C48.8754 181.783 47.3217 181.975 45.7759 182.366C39.897 183.858 35.089 187.866 32.5934 193.357L12.5575 237.443L56.6376 217.406C62.1287 214.906 66.1365 210.102 67.6282 204.223C68.6823 200.065 68.2946 195.82 66.5867 192.145L59.5662 196.116C57.9412 197.037 55.8954 196.762 54.5707 195.433C53.4449 194.31 53.0742 192.664 53.5534 191.195C53.6352 190.943 53.7421 190.696 53.8744 190.458ZM61.0274 116.783C63.4433 112.076 65.9663 107.496 68.5909 103.053L43.4344 101.378L24.6153 149.476L35.3603 141.418C36.31 140.71 37.5185 140.435 38.6767 140.664L49.2838 142.785C52.9358 133.533 56.866 124.879 61.0274 116.783ZM74.5832 170.383L68.7907 180.791L116.658 151.822V133.335H95.2099L75.3615 169.375C75.1525 169.753 74.889 170.092 74.5832 170.383ZM107.208 200.716L109.329 211.319C109.562 212.481 109.287 213.689 108.579 214.635L100.521 225.38L148.617 206.56L146.938 181.408C142.526 184.015 137.977 186.522 133.304 188.923C125.182 193.103 116.496 197.049 107.208 200.716ZM184.002 65.9934C169.991 51.9815 147.197 51.9815 133.185 65.9934C119.174 80.0053 119.174 102.8 133.185 116.812C140.189 123.819 149.393 127.32 158.592 127.32C167.795 127.32 176.995 123.816 184.002 116.812C198.014 102.8 198.014 80.0049 184.002 65.9934ZM178.111 110.92C167.35 121.682 149.839 121.682 139.077 110.92C128.315 100.158 128.315 82.6465 139.077 71.8846C144.456 66.5056 151.526 63.8142 158.592 63.8142C165.659 63.8142 172.729 66.5056 178.112 71.8846C188.873 82.6465 188.873 100.158 178.111 110.92ZM150.305 99.687C154.876 104.257 162.309 104.262 166.875 99.687C168.5 98.0581 171.142 98.0581 172.767 99.687C174.396 101.316 174.396 103.949 172.767 105.578C168.863 109.487 163.73 111.441 158.592 111.441C153.46 111.441 148.322 109.487 144.414 105.578C136.598 97.7622 136.598 85.0417 144.414 77.2256C152.23 69.4096 164.954 69.4096 172.767 77.2256C174.396 78.8546 174.396 81.4879 172.767 83.1169C171.142 84.7458 168.5 84.7458 166.875 83.1169C162.304 78.5465 154.872 78.5504 150.305 83.1169C145.739 87.6878 145.739 95.1166 150.305 99.687Z" fill="#FFC000" fill-opacity="0.25"/>
</svg>
