<svg width="250" height="250" viewBox="0 0 250 250" fill="none" xmlns="http://www.w3.org/2000/svg">
<path fill-rule="evenodd" clip-rule="evenodd" d="M224.418 29.169C222.524 36.5027 215.923 41.6356 208.349 41.6643C205.386 41.6476 202.481 40.8302 199.944 39.2985L191.614 47.6287C213.928 81.9995 213.928 126.282 191.614 160.653L204.184 173.223L210.073 179.112L243.602 212.641C252.13 221.169 252.13 234.994 243.602 243.521C235.075 252.049 221.25 252.049 212.722 243.521L179.193 209.992L173.304 204.103L160.734 191.533C115.171 221.04 54.5844 210.594 21.5323 167.534C-13.4831 121.915 -4.88737 56.5477 40.7313 21.5323C86.35 -13.4831 151.717 -4.88737 186.732 40.7313L194.05 33.4132C192.519 30.8746 191.703 27.9689 191.689 25.0039C191.689 15.8027 199.148 8.34356 208.349 8.34356C215.923 8.37219 222.524 13.5051 224.418 20.8388H250V29.169H224.418ZM216.679 25.0039C216.679 20.4031 212.95 16.6737 208.349 16.6737C203.749 16.6737 200.019 20.4031 200.019 25.0039C200.019 29.6048 203.748 33.3341 208.349 33.3341C212.95 33.3341 216.679 29.6048 216.679 25.0039ZM237.93 237.632C243.145 232.297 243.047 223.745 237.713 218.531L204.184 185.002L185.083 204.103L218.612 237.632C218.684 237.705 218.756 237.778 218.829 237.849C224.163 243.064 232.715 242.966 237.93 237.632ZM179.193 198.213L198.295 179.112L186.766 167.583C186.51 167.918 186.239 168.24 185.968 168.561C185.764 168.805 185.559 169.048 185.362 169.295C184.86 169.926 184.347 170.549 183.825 171.165C183.059 172.077 182.284 172.977 181.488 173.86C181.228 174.144 180.968 174.42 180.707 174.695C180.551 174.861 180.395 175.026 180.239 175.193C178.64 176.901 176.986 178.554 175.278 180.154C175.111 180.31 174.946 180.466 174.781 180.622C174.505 180.882 174.229 181.143 173.945 181.403C173.062 182.199 172.163 182.973 171.251 183.74C170.63 184.26 169.959 184.814 169.381 185.277C169.133 185.474 168.89 185.678 168.648 185.882C168.324 186.155 168 186.427 167.665 186.684L179.193 198.213ZM178.048 165.122C179.477 163.393 180.83 161.598 182.142 159.765C205.978 126.402 205.978 81.5794 182.142 48.216C151.339 5.09843 91.4142 -4.88321 48.2972 25.9202C5.18017 56.7237 -4.80199 116.648 26.0015 159.765C56.8049 202.882 116.73 212.865 159.847 182.061C161.679 180.749 163.474 179.395 165.203 177.967C165.464 177.749 165.72 177.523 165.975 177.297C166.213 177.087 166.451 176.877 166.69 176.676C168.178 175.401 169.616 174.085 171.005 172.727C171.616 172.136 172.217 171.534 172.808 170.924C174.166 169.53 175.482 168.091 176.757 166.609C176.909 166.433 177.063 166.259 177.217 166.085C177.498 165.766 177.779 165.447 178.048 165.122ZM16.755 104.141C16.755 55.8339 55.9152 16.6738 104.222 16.6738C152.507 16.7263 191.636 55.8558 191.689 104.141C191.689 152.447 152.529 191.608 104.222 191.608C55.9152 191.608 16.755 152.447 16.755 104.141ZM168.847 58.6162C154.059 37.5633 129.95 25.0243 104.222 25.0039C66.961 25.0586 34.7706 51.0634 26.8845 87.4803H42.337C44.23 80.1253 50.8655 74.9882 58.46 74.9975C67.643 75.009 75.0777 82.4624 75.0662 91.6454C75.0517 94.6104 74.2358 97.5161 72.7046 100.055L91.6475 118.998C96.8117 115.849 103.302 115.849 108.466 118.998L135.739 91.7245C134.208 89.1859 133.392 86.2802 133.378 83.3152C133.378 74.114 140.837 66.6548 150.038 66.6548C153 66.6751 155.901 67.4957 158.435 69.0289L168.847 58.6162ZM150.038 91.6454C154.639 91.6454 158.368 87.9161 158.368 83.3152C158.368 78.7143 154.639 74.985 150.038 74.985C145.437 74.985 141.708 78.7143 141.708 83.3152C141.708 87.9161 145.437 91.6454 150.038 91.6454ZM100.057 141.626C104.658 141.626 108.387 137.897 108.387 133.296C108.387 128.695 104.658 124.966 100.057 124.966C95.4559 124.966 91.7266 128.695 91.7266 133.296C91.7266 137.897 95.4559 141.626 100.057 141.626ZM58.4059 99.9756C63.0067 99.9756 66.7361 96.2462 66.7361 91.6454C66.7361 87.0445 63.0067 83.3152 58.4059 83.3152C53.805 83.3152 50.0757 87.0445 50.0757 91.6454C50.0757 96.2462 53.805 99.9756 58.4059 99.9756ZM104.222 183.277C117.676 183.289 130.911 179.867 142.673 173.336C180.85 152.139 194.614 104.007 173.417 65.8296L164.337 74.9054C165.868 77.444 166.684 80.3497 166.698 83.3147C166.698 92.5159 159.239 99.975 150.038 99.975C147.073 99.9605 144.167 99.1446 141.629 97.6134L114.356 124.886C115.887 127.425 116.703 130.331 116.717 133.296C116.717 142.497 109.258 149.956 100.057 149.956C90.8556 149.956 83.3964 142.497 83.3964 133.296C83.411 130.331 84.2268 127.425 85.758 124.886L66.8152 105.944C64.2766 107.475 61.3709 108.291 58.4059 108.305C50.8322 108.277 44.2305 103.143 42.337 95.81H25.5308C25.232 98.6125 25.0831 101.43 25.0852 104.248C25.1148 147.925 60.5457 183.307 104.222 183.277Z" fill="#FFC000" fill-opacity="0.25"/>
</svg>
