<svg width="250" height="289" viewBox="0 0 250 289" fill="none" xmlns="http://www.w3.org/2000/svg">
<path fill-rule="evenodd" clip-rule="evenodd" d="M250 117.827C250 120.944 247.473 123.471 244.357 123.471H222.979V138.818H244.357C247.473 138.818 250 141.345 250 144.462C250 147.578 247.473 150.105 244.357 150.105H222.979V165.468H244.357C247.473 165.468 250 167.995 250 171.112C250 174.229 247.473 176.755 244.357 176.755H222.979V192.103H244.357C247.473 192.103 250 194.629 250 197.746C250 200.863 247.473 203.389 244.357 203.389H222.98V212.639C222.98 214.135 222.385 215.571 221.327 216.629L205.008 232.946C203.949 234.005 202.514 234.599 201.018 234.599H191.782V255.973C191.782 259.09 189.256 261.617 186.139 261.617C183.022 261.617 180.495 259.09 180.495 255.973V234.599H165.129V255.973C165.129 259.09 162.602 261.617 159.485 261.617C156.369 261.617 153.842 259.09 153.842 255.973V234.599H138.491V254.838C138.491 273.642 123.191 288.939 104.386 288.939C89 288.939 75.627 278.533 71.5491 264.076C59.8211 262.884 48.9549 257.699 40.57 249.21C31.1005 239.622 25.8854 226.918 25.8854 213.439C25.8854 206.749 27.2049 200.129 29.7342 193.999C11.491 184.328 0 165.478 0 144.462C0 133.045 3.41196 122.057 9.86625 112.685C15.0186 105.203 21.8155 99.1495 29.737 94.9402C27.2049 88.7985 25.8843 82.1732 25.8843 75.4842C25.8843 62.0051 31.0993 49.3014 40.5689 39.7133C48.9543 31.224 59.8205 26.0389 71.5485 24.8471C75.627 10.3995 88.9989 0 104.385 0C123.191 0 138.49 15.2974 138.49 34.101V54.3245H153.841V32.9656C153.841 29.8488 156.367 27.3222 159.484 27.3222C162.601 27.3222 165.128 29.8488 165.128 32.9656V54.3245H180.494V32.9656C180.494 29.8488 183.021 27.3222 186.138 27.3222C189.255 27.3222 191.781 29.8488 191.781 32.9656V54.3245H201.016C202.514 54.3245 203.95 54.9199 205.008 55.9791L221.327 72.3115C222.385 73.3696 222.979 74.8042 222.979 76.3002V85.5333H244.357C247.473 85.5333 250 88.0598 250 91.1766C250 94.2935 247.473 96.82 244.357 96.82H222.979V112.184H244.357C247.473 112.184 250 114.71 250 117.827ZM83.3121 263.582C86.7822 271.896 95.0243 277.652 104.386 277.652C116.968 277.652 127.204 267.418 127.203 254.837V185.633H109.635L94.6608 200.617C96.2573 203.53 97.1078 206.813 97.1055 210.227C97.1021 215.571 95.0169 220.59 91.2353 224.361C87.3363 228.259 82.2111 230.209 77.0858 230.209C71.9582 230.209 66.8307 228.258 62.9266 224.355C59.1507 220.59 57.0655 215.57 57.0621 210.226C57.0587 204.875 59.1411 199.843 62.9266 196.058C69.3465 189.639 79.0768 188.504 86.6727 192.643L103.305 175.999C104.306 174.999 105.589 174.457 106.897 174.365C107.016 174.353 107.146 174.345 107.297 174.345H127.204V150.104H91.8397C89.3967 158.405 81.7116 164.485 72.6292 164.485C61.5954 164.485 52.6191 155.502 52.6191 144.46C52.6191 133.428 61.5954 124.452 72.6292 124.452C81.7099 124.452 89.3939 130.525 91.8386 138.817H127.204V114.576H107.297C105.841 114.551 104.511 114 103.307 112.923L86.6749 96.2923C83.6958 97.9159 80.3911 98.7331 77.0841 98.7331C71.9571 98.7331 66.8301 96.7816 62.9272 92.8792C59.145 89.0976 57.0626 84.07 57.0626 78.7229C57.0626 73.3758 59.1456 68.3482 62.9272 64.5666C70.7336 56.7613 83.4357 56.7619 91.2415 64.5666C95.0243 68.3482 97.1067 73.3758 97.1067 78.7235C97.1067 82.1326 96.2568 85.4103 94.6631 88.3194L109.635 103.29H127.204V34.101C127.204 21.5214 116.968 11.2867 104.386 11.2867C95.0237 11.2867 86.7816 17.0378 83.3115 25.3442C87.408 26.0807 91.4159 27.3301 95.2872 29.0948C100.924 31.6823 105.943 35.215 110.218 39.6004C112.394 41.8318 112.349 45.4052 110.117 47.5807C109.02 48.6501 107.598 49.1828 106.178 49.1828C104.71 49.1828 103.243 48.6129 102.137 47.4786C98.8335 44.0903 94.9498 41.3583 90.5926 39.3583C85.9701 37.2511 81.0948 36.0813 76.1134 35.8787C54.6281 36.2331 37.1721 53.969 37.1721 75.4848C37.1721 82.2794 38.9199 88.9859 42.2263 94.8787C43.7003 98.3967 42.7596 101.064 39.4041 102.878C22.3234 109.724 11.2867 126.047 11.2867 144.462C11.2867 162.871 22.3251 179.201 39.4075 186.062C40.9148 186.667 42.0886 187.893 42.6275 189.426C43.167 190.958 43.0198 192.648 42.2229 194.064C38.9187 199.94 37.1721 206.639 37.1721 213.437C37.1721 234.953 54.6281 252.689 76.1134 253.043C81.1264 252.84 85.9977 251.672 90.5937 249.563C94.943 247.567 98.8296 244.837 102.145 241.451C104.326 239.224 107.898 239.186 110.126 241.366C112.353 243.547 112.391 247.12 110.21 249.347C105.927 253.723 100.91 257.247 95.3014 259.822C91.4419 261.593 87.4283 262.845 83.3121 263.582ZM83.2618 84.899C84.9114 83.2494 85.82 81.0564 85.82 78.724C85.82 76.3911 84.9114 74.1981 83.2618 72.5491C79.8561 69.1439 74.3143 69.1439 70.908 72.5491C69.2585 74.1981 68.3499 76.3916 68.3499 78.724C68.3499 81.0564 69.2585 83.2494 70.908 84.899C74.3143 88.3047 79.8555 88.3047 83.2618 84.899ZM72.6292 153.199C77.4481 153.199 81.3685 149.279 81.3685 144.462C81.3685 139.652 77.4481 135.74 72.6292 135.74C67.8194 135.74 63.9058 139.653 63.9058 144.462C63.9058 149.279 67.8194 153.199 72.6292 153.199ZM83.2618 216.374C84.912 214.729 85.8183 212.545 85.82 210.22C85.8217 207.887 84.9137 205.694 83.263 204.042L83.2624 204.042C83.2619 204.041 83.2613 204.04 83.2607 204.04C79.8555 200.635 74.3138 200.635 70.908 204.04C69.2568 205.691 68.3482 207.886 68.3499 210.22C68.351 212.545 69.2579 214.729 70.9024 216.369C74.3138 219.78 79.8555 219.779 83.2618 216.374ZM198.679 223.312L211.692 210.301V78.6366L198.678 65.6112H138.49V82.3505H189.322C192.438 82.3505 194.965 84.877 194.965 87.9938V119.091C194.965 122.208 192.438 124.734 189.322 124.734C186.205 124.734 183.678 122.208 183.678 119.091V93.6371H138.49V195.302H183.678V169.784C183.678 166.667 186.205 164.141 189.322 164.141C192.438 164.141 194.965 166.667 194.965 169.784V200.945C194.965 204.062 192.438 206.589 189.322 206.589H138.49V223.312H198.679ZM183.679 144.446C183.679 141.329 186.205 138.802 189.322 138.802C192.438 138.802 194.966 141.329 194.966 144.446C194.966 147.563 192.439 150.097 189.322 150.097C186.205 150.097 183.679 147.578 183.679 144.462V144.446Z" fill="#FFC000" fill-opacity="0.25"/>
</svg>
