<svg width="250" height="250" viewBox="0 0 250 250" fill="none" xmlns="http://www.w3.org/2000/svg">
<path fill-rule="evenodd" clip-rule="evenodd" d="M241.935 76.6129V209.677H250V229.839C250 240.955 240.955 250 229.839 250H20.1613C9.04502 250 0 240.955 0 229.839V209.677H8.06452V76.6129C8.06452 65.4966 17.1095 56.4516 28.2258 56.4516H96.7742C96.7742 25.3217 122.096 0 153.226 0C184.356 0 209.677 25.3217 209.677 56.4516H221.774C232.89 56.4516 241.935 65.4966 241.935 76.6129ZM233.871 76.6129C233.871 69.9443 228.443 64.5161 221.774 64.5161H209.032C208.638 67.2706 208.077 69.9679 207.299 72.5806H217.742C222.19 72.5806 225.806 76.1975 225.806 80.6452V209.677H233.871V76.6129ZM149.979 59.4679L107.182 41.6339C105.674 46.306 104.839 51.2813 104.839 56.4516C104.839 83.1338 126.544 104.839 153.226 104.839C157.162 104.839 160.967 104.315 164.633 103.423L149.979 59.4679ZM157.839 57.5404L172.294 100.907C189.516 93.4921 201.613 76.3629 201.613 56.4516C201.613 44.5596 197.281 33.6737 190.136 25.241L157.839 57.5404ZM184.44 19.5372C176.004 12.396 165.118 8.06452 153.226 8.06452C134.569 8.06452 118.375 18.6945 110.306 34.2013L152.287 51.6889L184.44 19.5372ZM28.2258 64.5161C21.5572 64.5161 16.129 69.9443 16.129 76.6129V209.677H24.1935V80.6452C24.1935 76.1975 27.8104 72.5806 32.2581 72.5806H99.1526C98.3709 69.9679 97.8138 67.2706 97.42 64.5161H28.2258ZM229.839 241.935C236.507 241.935 241.935 236.507 241.935 229.839V217.742H217.742V80.6452H204.153C195.068 99.6862 175.689 112.903 153.226 112.903C130.763 112.903 111.383 99.6862 102.299 80.6452H32.2581V209.677H94.4115L95.5889 210.859C100.029 215.299 105.931 217.742 112.21 217.742H137.786C144.069 217.742 149.967 215.299 154.407 210.859L155.588 209.677H209.677V217.742H158.867C153.068 222.956 145.65 225.806 137.79 225.806H112.214C104.354 225.806 96.9356 222.956 91.1373 217.742H8.06452V229.839C8.06452 236.507 13.4927 241.935 20.1613 241.935H229.839ZM40.3226 225.806H48.3871V233.871H40.3226V225.806ZM64.5161 225.806H56.4516V233.871H64.5161V225.806ZM197.581 169.355C195.106 169.355 192.802 170.109 190.883 171.391L176.815 160.843C177.173 159.701 177.419 158.512 177.419 157.258C177.419 150.589 171.991 145.161 165.323 145.161C158.654 145.161 153.226 150.589 153.226 157.258C153.226 158.646 153.507 159.959 153.939 161.202L131.356 179.27C129.505 178.116 127.339 177.419 125 177.419C122.287 177.419 119.806 178.351 117.786 179.863L100.399 168.27C100.641 167.323 100.806 166.346 100.806 165.323C100.806 158.654 95.3783 153.226 88.7097 153.226C82.0411 153.226 76.6129 158.654 76.6129 165.323C76.6129 166.346 76.7783 167.323 77.0205 168.27L59.6333 179.863C57.6132 178.347 55.1325 177.419 52.4194 177.419C45.7508 177.419 40.3226 182.848 40.3226 189.516C40.3226 196.185 45.7508 201.613 52.4194 201.613C59.0879 201.613 64.5161 196.185 64.5161 189.516C64.5161 188.492 64.3507 187.516 64.1086 186.569L81.4957 174.976C83.5158 176.492 85.9966 177.419 88.7097 177.419C91.4228 177.419 93.9036 176.492 95.9236 174.976L113.311 186.569C113.069 187.516 112.903 188.496 112.903 189.516C112.903 196.185 118.331 201.613 125 201.613C131.669 201.613 137.097 196.185 137.097 189.516C137.097 188.128 136.815 186.815 136.384 185.572L158.967 167.504C160.818 168.658 162.984 169.355 165.323 169.355C167.797 169.355 170.101 168.601 172.021 167.319L186.088 177.866C185.73 179.008 185.484 180.197 185.484 181.452C185.484 188.12 190.912 193.548 197.581 193.548C204.249 193.548 209.677 188.12 209.677 181.452C209.677 174.783 204.249 169.355 197.581 169.355ZM52.4194 193.548C50.1985 193.548 48.3871 191.737 48.3871 189.516C48.3871 187.295 50.1985 185.484 52.4194 185.484C54.6402 185.484 56.4516 187.295 56.4516 189.516C56.4516 191.737 54.6402 193.548 52.4194 193.548ZM88.7097 169.355C86.4888 169.355 84.6774 167.543 84.6774 165.323C84.6774 163.102 86.4888 161.29 88.7097 161.29C90.9306 161.29 92.7419 163.102 92.7419 165.323C92.7419 167.543 90.9306 169.355 88.7097 169.355ZM125 193.548C122.779 193.548 120.968 191.737 120.968 189.516C120.968 187.295 122.779 185.484 125 185.484C127.221 185.484 129.032 187.295 129.032 189.516C129.032 191.737 127.221 193.548 125 193.548ZM165.323 161.29C163.102 161.29 161.29 159.479 161.29 157.258C161.29 155.037 163.102 153.226 165.323 153.226C167.543 153.226 169.355 155.037 169.355 157.258C169.355 159.479 167.543 161.29 165.323 161.29ZM197.581 185.484C195.36 185.484 193.548 183.673 193.548 181.452C193.548 179.231 195.36 177.419 197.581 177.419C199.802 177.419 201.613 179.231 201.613 181.452C201.613 183.673 199.802 185.484 197.581 185.484ZM40.3226 88.7097H104.839V145.161H40.3226V88.7097ZM48.3871 137.097H96.7742V96.7742H48.3871V137.097ZM56.4516 104.839H88.7097V112.903H56.4516V104.839ZM88.7097 120.968H56.4516V129.032H88.7097V120.968ZM112.903 129.032H120.968V137.097H112.903V129.032ZM209.677 129.032H129.032V137.097H209.677V129.032ZM24.1935 225.806H32.2581V233.871H24.1935V225.806ZM193.548 233.871V225.806H225.806V233.871H193.548Z" fill="#FFC000" fill-opacity="0.25"/>
</svg>
