<svg width="71" height="125" viewBox="0 0 71 125" fill="none" xmlns="http://www.w3.org/2000/svg">
<path fill-rule="evenodd" clip-rule="evenodd" d="M35.1711 8.0474L61.0319 22.5605L60.8427 52.5324L35.1839 65.5534L9.42559 52.5443V22.5529L35.1711 8.0474ZM35.1716 8.66877L10.2726 22.6973L25.1547 30.1964L35.204 25.0212L45.3052 30.215L60.1834 22.7054L35.1716 8.66877ZM60.4847 23.1599L45.5369 30.7047L45.6452 43.0908L35.498 47.9958L35.4564 64.8079L60.3014 52.1998L60.4847 23.1599ZM34.913 64.8099L34.9547 47.9961L24.7985 43.0536L24.8925 30.6706L9.96897 23.1507V52.212L34.913 64.8099ZM25.4338 30.9434L25.3444 42.7171L34.9562 47.3946L34.985 35.7562L25.4338 30.9434ZM35.5284 35.7564L35.4995 47.3937L45.0989 42.7534L44.9959 30.9778L35.5284 35.7564ZM44.7076 30.5167L35.2042 25.6302L25.7526 30.4976L35.257 35.2868L44.7076 30.5167Z" fill="#FFC000"/>
<path fill-rule="evenodd" clip-rule="evenodd" d="M35.3325 0L68.4191 18.5682L68.1769 56.9274L35.3496 73.5864L2.3939 56.9422V18.5582L35.3325 0ZM35.3341 1.86412L4.02405 19.5048V55.9455L35.3478 71.7655L66.5531 55.9297L66.783 19.5132L35.3341 1.86412Z" fill="#FFC000"/>
<path d="M70.6776 114.623H0V112.999H70.6776V114.623Z" fill="#FFC000"/>
<path d="M10.242 124.886V120.022H11.4975V119.58H8.48874V120.022H9.75966V124.886H10.242Z" fill="#FFC000"/>
<path d="M13.7513 119.58V124.886H16.5152V124.413H14.2337V122.408H16.1936V121.966H14.2337V120.037H16.5152V119.58H13.7513Z" fill="#FFC000"/>
<path d="M20.0858 122.629L21.1653 124.886H21.7088L20.3385 122.149L21.6247 119.58H21.0811L20.0858 121.699L19.0752 119.58H18.5393L19.8179 122.149L18.4551 124.886H18.9986L20.0858 122.629Z" fill="#FFC000"/>
<path d="M26.4968 122.408V124.886H27.0021V119.58H26.4968V121.966H24.4527V119.58H23.9704V124.886H24.4527V122.408H26.4968Z" fill="#FFC000"/>
<path fill-rule="evenodd" clip-rule="evenodd" d="M32.5213 124.005C32.5953 123.815 32.6323 123.602 32.6323 123.369V121.074C32.6323 120.871 32.5992 120.676 32.5328 120.491C32.4664 120.305 32.3681 120.143 32.238 120.003C32.1079 119.863 31.9484 119.751 31.7595 119.668C31.5707 119.584 31.3512 119.542 31.1011 119.542C30.8307 119.542 30.5984 119.585 30.4044 119.671C30.2104 119.758 30.051 119.873 29.9259 120.018C29.8009 120.163 29.7078 120.327 29.6464 120.51C29.5852 120.693 29.5546 120.881 29.5546 121.074V123.308C29.5546 123.531 29.5852 123.742 29.6464 123.94C29.7078 124.139 29.8022 124.311 29.9298 124.459C30.0574 124.606 30.2181 124.722 30.4121 124.806C30.606 124.889 30.8357 124.931 31.1011 124.931C31.3308 124.931 31.5388 124.893 31.725 124.817C31.9114 124.741 32.0722 124.634 32.2074 124.497C32.3426 124.36 32.4473 124.196 32.5213 124.005ZM32.0695 120.717C32.1079 120.844 32.127 120.966 32.127 121.083V123.413C32.127 123.566 32.1015 123.708 32.0505 123.84C31.9994 123.972 31.9267 124.086 31.8348 124.184C31.7429 124.281 31.6345 124.356 31.5082 124.409C31.3831 124.463 31.2479 124.489 31.1049 124.489C30.9263 124.489 30.7693 124.46 30.6367 124.402C30.5027 124.343 30.3917 124.262 30.3023 124.158C30.213 124.052 30.1454 123.929 30.102 123.787C30.0586 123.644 30.0369 123.489 30.0369 123.32V121.083C30.0369 120.956 30.0574 120.828 30.0982 120.698C30.139 120.568 30.2041 120.453 30.2908 120.35C30.3776 120.248 30.4874 120.166 30.6213 120.102C30.7541 120.039 30.9136 120.007 31.0973 120.007C31.2823 120.007 31.4393 120.041 31.5694 120.11C31.7008 120.178 31.8068 120.265 31.8884 120.369C31.9714 120.474 32.0313 120.59 32.0695 120.717Z" fill="#FFC000"/>
<path d="M36.0422 120.022H37.7877V124.886H38.27V119.58H35.5752V122.5C35.5752 122.886 35.556 123.198 35.5178 123.437C35.4795 123.676 35.4233 123.87 35.3493 124.02C35.2754 124.17 35.1835 124.289 35.0737 124.375C34.9639 124.461 34.8402 124.545 34.7024 124.626C34.7279 124.693 34.756 124.756 34.7866 124.817L34.8785 125C35.0775 124.924 35.251 124.831 35.3991 124.722C35.5471 124.612 35.6683 124.459 35.7627 124.263C35.8571 124.067 35.9273 123.821 35.9732 123.522C36.0192 123.225 36.0422 122.852 36.0422 122.404V120.022Z" fill="#FFC000"/>
<path fill-rule="evenodd" clip-rule="evenodd" d="M43.8122 124.005C43.8862 123.815 43.9232 123.602 43.9232 123.369V121.074C43.9232 120.871 43.8901 120.676 43.8237 120.491C43.7573 120.305 43.659 120.143 43.5289 120.003C43.3988 119.863 43.2393 119.751 43.0504 119.668C42.8616 119.584 42.6421 119.542 42.392 119.542C42.1216 119.542 41.8893 119.585 41.6953 119.671C41.5013 119.758 41.3419 119.873 41.2169 120.018C41.0918 120.163 40.9987 120.327 40.9373 120.51C40.8761 120.693 40.8455 120.881 40.8455 121.074V123.308C40.8455 123.531 40.8761 123.742 40.9373 123.94C40.9987 124.139 41.0931 124.311 41.2207 124.459C41.3482 124.606 41.509 124.722 41.703 124.806C41.8969 124.889 42.1266 124.931 42.392 124.931C42.6217 124.931 42.8297 124.893 43.0159 124.817C43.2023 124.741 43.3631 124.634 43.4983 124.497C43.6335 124.36 43.7382 124.196 43.8122 124.005ZM43.3604 120.717C43.3988 120.844 43.4179 120.966 43.4179 121.083V123.413C43.4179 123.566 43.3924 123.708 43.3414 123.84C43.2903 123.972 43.2176 124.086 43.1257 124.184C43.0338 124.281 42.9254 124.356 42.7991 124.409C42.674 124.463 42.5388 124.489 42.3958 124.489C42.2172 124.489 42.0602 124.46 41.9276 124.402C41.7936 124.343 41.6825 124.262 41.5932 124.158C41.504 124.052 41.4363 123.929 41.3929 123.787C41.3495 123.644 41.3278 123.489 41.3278 123.32V121.083C41.3278 120.956 41.3482 120.828 41.3891 120.698C41.4299 120.568 41.495 120.453 41.5817 120.35C41.6685 120.248 41.7783 120.166 41.9122 120.102C42.045 120.039 42.2045 120.007 42.3882 120.007C42.5732 120.007 42.7302 120.041 42.8603 120.11C42.9917 120.178 43.0977 120.265 43.1793 120.369C43.2623 120.474 43.3222 120.59 43.3604 120.717Z" fill="#FFC000"/>
<path d="M46.9809 124.886V120.037H49.2088V119.58H46.4833V124.886H46.9809Z" fill="#FFC000"/>
<path d="M51.5163 119.58V124.886H51.9909L54.2571 120.502H54.2801V124.886H54.7624V119.58H54.2953L52.0292 123.963L51.9986 123.956V119.58H51.5163Z" fill="#FFC000"/>
<path d="M58.6623 118.677C58.5551 118.567 58.4939 118.447 58.4786 118.314H58.0651C58.0703 118.411 58.092 118.513 58.1302 118.619C58.1685 118.726 58.2273 118.824 58.3063 118.913C58.3854 119.002 58.4875 119.076 58.6126 119.134C58.7376 119.192 58.8894 119.222 59.0681 119.222C59.2416 119.222 59.3897 119.192 59.5121 119.134C59.6346 119.076 59.7342 119.003 59.8107 118.917C59.8873 118.83 59.946 118.734 59.9868 118.627C60.0276 118.52 60.0532 118.416 60.0633 118.314H59.6653C59.6551 118.447 59.5964 118.567 59.4891 118.677C59.382 118.786 59.2416 118.84 59.0681 118.84C58.9048 118.84 58.7695 118.786 58.6623 118.677Z" fill="#FFC000"/>
<path d="M57.4297 119.58V124.886H57.9044L60.1706 120.502H60.1936V124.886H60.6758V119.58H60.2088L57.9427 123.963L57.912 123.956V119.58H57.4297Z" fill="#FFC000"/>
<path d="M3.39526 83.4322V107.745H8.29204V97.2803C8.96928 97.413 9.67456 97.6897 10.4074 98.1097C11.1403 98.53 11.9286 99.146 12.7725 99.9587C13.6162 100.771 14.538 101.814 15.5374 103.085C16.5367 104.357 17.6415 105.91 18.8519 107.745H24.5317C24.0542 106.993 23.5489 106.203 23.016 105.374C22.483 104.545 21.9167 103.71 21.317 102.87C20.7175 102.029 20.0845 101.203 19.4183 100.39C18.7521 99.5775 18.0524 98.8144 17.3196 98.1013C16.5867 97.3882 15.8149 96.7415 15.0045 96.1608C14.1938 95.5804 13.3497 95.1077 12.4728 94.7429C13.6162 94.1018 14.6963 93.361 15.7123 92.5204C16.7283 91.6804 17.6943 90.7737 18.6105 89.8007C19.5265 88.8279 20.4036 87.8021 21.2421 86.7242C22.0804 85.646 22.8994 84.5489 23.6989 83.4322H17.4196C16.842 84.35 16.2258 85.2428 15.5707 86.1104C14.9154 86.9786 14.2104 87.7913 13.4555 88.5484C12.7002 89.3059 11.8952 89.9995 11.0403 90.6298C10.1851 91.2601 9.26912 91.7964 8.29204 92.2384V83.4322H3.39526Z" fill="#FFC000"/>
<path d="M47.4167 83.4322C46.7946 85.3228 46.1563 87.1693 45.5012 88.9715C44.8461 90.7737 44.1548 92.5235 43.4277 94.2206C42.7003 95.9179 41.9287 97.5597 41.1125 99.146C40.2963 100.733 39.4219 102.256 38.4892 103.715C37.9338 104.578 37.4036 105.294 36.8986 105.863C36.3933 106.433 35.8684 106.883 35.3245 107.215C34.7806 107.546 34.1921 107.781 33.5591 107.919C32.9262 108.058 32.2043 108.127 31.3939 108.127C30.8942 108.127 30.3112 108.058 29.645 107.919C28.9788 107.781 28.2792 107.519 27.5463 107.132L28.1626 102.903C28.6623 103.201 29.0813 103.433 29.4201 103.599C29.7587 103.765 30.0419 103.889 30.2696 103.972C30.497 104.055 30.6803 104.105 30.8193 104.121C30.9579 104.138 31.0828 104.147 31.194 104.147C31.4605 104.147 31.7186 104.119 31.9685 104.063C32.2183 104.008 32.4766 103.876 32.7431 103.665C33.0096 103.455 33.2952 103.149 33.6008 102.745C33.9061 102.342 34.2476 101.791 34.6251 101.095C32.5931 98.5409 30.7444 95.7544 29.0787 92.736C27.4131 89.7179 25.9529 86.6163 24.6982 83.4322H30.1614C31.1049 85.9751 32.1627 88.3577 33.3343 90.5802C34.5056 92.8024 35.7687 94.8316 37.1235 96.6667C37.612 95.5944 38.0615 94.5717 38.4724 93.5986C38.8833 92.6259 39.2721 91.6693 39.6384 90.7294C40.1047 89.5907 40.5406 88.4188 40.9459 87.2134C41.3511 86.0083 41.748 84.748 42.1368 83.4322H47.4167Z" fill="#FFC000"/>
<path d="M54.729 103.865V87.313H66.4048V83.4322H49.8319V107.745H59.3426C60.6526 107.745 61.8603 107.569 62.9653 107.215C64.0699 106.861 65.0167 106.355 65.8051 105.697C66.5936 105.04 67.2098 104.243 67.654 103.309C68.0979 102.375 68.3203 101.322 68.3203 100.149C68.3203 98.9664 68.0979 97.9385 67.654 97.0647C67.2098 96.1915 66.5964 95.4644 65.8135 94.8837C65.0307 94.3034 64.1005 93.8722 63.0236 93.5902C61.9463 93.3083 60.775 93.1675 59.5093 93.1675H56.2281V97.0482H59.5426C60.1087 97.0482 60.6224 97.0954 61.0831 97.1891C61.5438 97.2834 61.9382 97.4518 62.2656 97.695C62.593 97.9385 62.8488 98.2701 63.032 98.69C63.2151 99.1104 63.3067 99.6467 63.3067 100.299C63.3067 100.962 63.2067 101.521 63.007 101.974C62.807 102.428 62.5295 102.795 62.174 103.077C61.8186 103.359 61.3996 103.561 60.9167 103.682C60.4336 103.804 59.909 103.865 59.3426 103.865H54.729Z" fill="#FFC000"/>
</svg>
