<svg width="185" height="328" viewBox="0 0 185 328" fill="none" xmlns="http://www.w3.org/2000/svg">
<path d="M25.2938 60.0497L91.7388 22.4527L158.481 60.069M25.2938 60.0497V137.765L91.7707 171.483M25.2938 60.0497L91.9624 93.7878M158.481 60.069L157.992 137.733L91.7707 171.483M158.481 60.069L91.9624 93.7878M91.7707 171.483L91.9624 93.7878M91.8242 66.8999L65.6401 80.4421L65.3948 112.898L91.8801 125.842L118.346 112.994L118.062 80.4489L91.8242 66.8999Z" stroke="#434244" stroke-width="1.41732" stroke-miterlimit="22.9256"/>
<path d="M0 298.69H184.351" stroke="#434244" stroke-width="4.25197" stroke-miterlimit="22.9256"/>
<path d="M26.7145 314.96V327.7H25.4565V314.96H22.1415V313.802H29.9894V314.96H26.7145ZM35.8681 327.7V313.802H43.0771V315H37.1262V320.052H42.2384V321.21H37.1262V326.462H43.0771V327.7H35.8681ZM55.2063 327.7L52.3906 321.79L49.5549 327.7H48.1372L51.6918 320.532L48.3567 313.802H49.7547L52.3906 319.353L54.9867 313.802H56.4044L53.0496 320.532L56.624 327.7H55.2063ZM69.1126 327.7V321.21H63.7808V327.7H62.5228V313.802H63.7808V320.052H69.1126V313.802H70.4306V327.7H69.1126ZM85.116 323.727C85.116 324.339 85.0195 324.895 84.8266 325.394C84.6334 325.893 84.3605 326.323 84.0077 326.682C83.655 327.041 83.2357 327.321 82.7496 327.521C82.2637 327.72 81.7213 327.82 81.1222 327.82C80.4299 327.82 79.8309 327.71 79.325 327.491C78.8191 327.271 78.3997 326.968 78.0669 326.582C77.7341 326.196 77.4879 325.744 77.3279 325.224C77.1683 324.705 77.0883 324.152 77.0883 323.567V317.716C77.0883 317.21 77.1683 316.717 77.3279 316.238C77.4879 315.759 77.7308 315.33 78.057 314.95C78.3832 314.571 78.799 314.268 79.3049 314.042C79.8108 313.815 80.4168 313.702 81.1222 313.702C81.7746 313.702 82.347 313.812 82.8394 314.031C83.3321 314.251 83.7482 314.544 84.0876 314.91C84.427 315.276 84.6834 315.702 84.8565 316.188C85.0296 316.674 85.116 317.183 85.116 317.716V323.727ZM83.798 317.739C83.798 317.433 83.7482 317.113 83.6482 316.781C83.5484 316.448 83.3921 316.145 83.1758 315.869C82.9628 315.596 82.6864 315.369 82.3437 315.19C82.0043 315.01 81.5948 314.92 81.1123 314.92C80.633 314.92 80.217 315.003 79.8708 315.17C79.5214 315.336 79.2351 315.552 79.0087 315.819C78.7825 316.088 78.6127 316.391 78.5063 316.731C78.3997 317.07 78.3464 317.406 78.3464 317.739V323.6C78.3464 324.043 78.403 324.449 78.5162 324.822C78.6294 325.194 78.8058 325.517 79.0386 325.793C79.2717 326.066 79.5613 326.279 79.9108 326.432C80.2568 326.586 80.6663 326.662 81.1321 326.662C81.505 326.662 81.8578 326.592 82.184 326.452C82.5135 326.313 82.7963 326.116 83.0359 325.863C83.2756 325.607 83.4652 325.307 83.5984 324.961C83.7315 324.615 83.798 324.242 83.798 323.843V317.739ZM98.563 314.96H94.0101V321.2C94.0101 322.372 93.9502 323.351 93.8304 324.129C93.7106 324.911 93.5275 325.557 93.2813 326.07C93.035 326.582 92.7188 326.985 92.3327 327.271C91.9466 327.557 91.4939 327.8 90.9749 328C90.8949 327.84 90.8152 327.68 90.7352 327.521C90.6553 327.361 90.5822 327.195 90.5156 327.021C90.8751 326.808 91.1977 326.589 91.484 326.362C91.7704 326.136 92.01 325.827 92.203 325.434C92.3959 325.041 92.5424 324.532 92.6424 323.906C92.7421 323.28 92.7921 322.462 92.7921 321.45V313.802H99.8211V327.7H98.563V314.96ZM114.566 323.727C114.566 324.339 114.47 324.895 114.277 325.394C114.084 325.893 113.811 326.323 113.458 326.682C113.106 327.041 112.686 327.321 112.2 327.521C111.714 327.72 111.172 327.82 110.573 327.82C109.88 327.82 109.281 327.71 108.775 327.491C108.27 327.271 107.85 326.968 107.517 326.582C107.185 326.196 106.938 325.744 106.778 325.224C106.619 324.705 106.539 324.152 106.539 323.567V317.716C106.539 317.21 106.619 316.717 106.778 316.238C106.938 315.759 107.181 315.33 107.507 314.95C107.834 314.571 108.249 314.268 108.755 314.042C109.261 313.815 109.867 313.702 110.573 313.702C111.225 313.702 111.797 313.812 112.29 314.031C112.783 314.251 113.199 314.544 113.538 314.91C113.877 315.276 114.134 315.702 114.307 316.188C114.48 316.674 114.566 317.183 114.566 317.716V323.727ZM113.248 317.739C113.248 317.433 113.199 317.113 113.099 316.781C112.999 316.448 112.843 316.145 112.626 315.869C112.413 315.596 112.137 315.369 111.794 315.19C111.455 315.01 111.045 314.92 110.563 314.92C110.083 314.92 109.667 315.003 109.321 315.17C108.972 315.336 108.686 315.552 108.459 315.819C108.233 316.088 108.063 316.391 107.957 316.731C107.85 317.07 107.797 317.406 107.797 317.739V323.6C107.797 324.043 107.853 324.449 107.967 324.822C108.08 325.194 108.256 325.517 108.489 325.793C108.722 326.066 109.012 326.279 109.361 326.432C109.707 326.586 110.117 326.662 110.583 326.662C110.955 326.662 111.308 326.592 111.634 326.452C111.964 326.313 112.247 326.116 112.486 325.863C112.726 325.607 112.916 325.307 113.049 324.961C113.182 324.615 113.248 324.242 113.248 323.843V317.739ZM122.542 315V327.7H121.244V313.802H128.353V315H122.542ZM134.372 327.7V313.802H135.63V325.264L135.71 325.284L141.621 313.802H142.839V327.7H141.581V316.218H141.521L135.61 327.7H134.372ZM152.532 310.487C152.572 310.833 152.732 311.149 153.011 311.436C153.291 311.722 153.644 311.865 154.07 311.865C154.522 311.865 154.888 311.722 155.168 311.436C155.447 311.149 155.6 310.833 155.627 310.487H156.665C156.639 310.753 156.572 311.026 156.466 311.306C156.359 311.585 156.206 311.838 156.006 312.065C155.807 312.291 155.547 312.481 155.228 312.634C154.908 312.787 154.522 312.863 154.07 312.863C153.604 312.863 153.208 312.787 152.881 312.634C152.555 312.481 152.289 312.287 152.082 312.054C151.876 311.822 151.723 311.565 151.623 311.286C151.523 311.006 151.467 310.74 151.453 310.487H152.532ZM149.796 327.7V313.802H151.054V325.264L151.134 325.284L157.045 313.802H158.263V327.7H157.005V316.218H156.945L151.034 327.7H149.796Z" fill="#434244"/>
<path d="M8.37009 148.415V50.4121L92.1612 3L176.326 50.4361L175.711 148.375L92.2013 190.935L8.37009 148.415Z" stroke="#434244" stroke-width="4.25197" stroke-miterlimit="22.9256"/>
<path d="M8.85596 282.801V219.112H21.6284V242.18C24.177 241.022 26.5663 239.617 28.7967 237.966C31.0268 236.315 33.1264 234.498 35.0964 232.514C37.0656 230.531 38.9044 228.402 40.6136 226.127C42.3224 223.855 43.9296 221.516 45.4361 219.112H61.8146C59.7292 222.037 57.593 224.911 55.4065 227.735C53.2195 230.559 50.9318 233.246 48.5425 235.794C46.1527 238.343 43.633 240.718 40.9829 242.919C38.3328 245.121 35.5157 247.061 32.5332 248.741C34.8205 249.696 37.0221 250.934 39.1368 252.455C41.2506 253.976 43.2637 255.67 45.1753 257.538C47.0868 259.406 48.9118 261.405 50.6494 263.533C52.387 265.662 54.0381 267.827 55.6019 270.029C57.166 272.23 58.6432 274.416 60.0335 276.588C61.4234 278.761 62.7413 280.831 63.987 282.801H49.1722C46.015 277.994 43.1333 273.924 40.5267 270.593C37.92 267.263 35.5157 264.532 33.3149 262.404C31.1137 260.275 29.0575 258.661 27.146 257.56C25.2345 256.46 23.3949 255.735 21.6284 255.387V282.801H8.85596Z" fill="#434244"/>
<path d="M123.679 219.112C122.056 224.064 120.391 228.901 118.682 233.622C116.974 238.343 115.171 242.927 113.274 247.372C111.377 251.818 109.364 256.119 107.235 260.275C105.106 264.432 102.826 268.42 100.393 272.244C98.9441 274.503 97.5611 276.379 96.244 277.87C94.926 279.362 93.5569 280.542 92.1382 281.411C90.7195 282.279 89.1846 282.894 87.5335 283.257C85.8828 283.619 83.9997 283.8 81.8858 283.8C80.5825 283.8 79.0618 283.619 77.3242 283.257C75.5866 282.894 73.7616 282.208 71.85 281.194L73.4577 270.115C74.761 270.897 75.8539 271.506 76.7375 271.94C77.6208 272.374 78.3594 272.7 78.9533 272.917C79.5465 273.135 80.0247 273.265 80.3871 273.308C80.7487 273.352 81.0745 273.374 81.3646 273.374C82.0597 273.374 82.7329 273.301 83.3846 273.156C84.0362 273.011 84.7098 272.664 85.405 272.114C86.1001 271.563 86.8452 270.76 87.6423 269.703C88.4386 268.646 89.3292 267.204 90.314 265.38C85.0137 258.689 80.1917 251.39 75.847 243.483C71.5027 235.577 67.6939 227.453 64.4213 219.112H78.671C81.1322 225.773 83.8912 232.014 86.9472 237.836C90.0024 243.657 93.2969 248.973 96.8306 253.78C98.1047 250.971 99.2772 248.292 100.349 245.743C101.421 243.195 102.435 240.689 103.39 238.227C104.607 235.244 105.743 232.174 106.801 229.017C107.858 225.86 108.893 222.559 109.907 219.112H123.679Z" fill="#434244"/>
<path d="M142.752 229.278V272.635H154.786C156.263 272.635 157.631 272.476 158.891 272.157C160.151 271.839 161.244 271.31 162.171 270.571C163.098 269.833 163.822 268.871 164.344 267.683C164.864 266.495 165.125 265.032 165.125 263.294C165.125 261.586 164.886 260.181 164.409 259.08C163.931 257.98 163.264 257.111 162.41 256.474C161.556 255.837 160.527 255.395 159.325 255.148C158.124 254.903 156.784 254.779 155.307 254.779H146.662V244.614H155.22C158.522 244.614 161.577 244.983 164.387 245.721C167.196 246.46 169.622 247.589 171.664 249.109C173.706 250.631 175.306 252.535 176.464 254.822C177.622 257.111 178.202 259.804 178.202 262.903C178.202 265.974 177.622 268.733 176.464 271.18C175.306 273.627 173.698 275.713 171.642 277.436C169.585 279.159 167.116 280.484 164.235 281.411C161.353 282.338 158.202 282.801 154.786 282.801H129.978V219.112H173.206V229.278H142.752Z" fill="#434244"/>
</svg>
