<svg width="700" height="700" viewBox="0 0 700 700" fill="none" xmlns="http://www.w3.org/2000/svg">
<g clip-path="url(#clip0)">
<path d="M199.308 354.379C204.336 358.401 206.921 364.865 205.629 371.186L199.595 402.502C198.159 410.259 202.468 417.728 209.651 420.458L229.187 427.784L248.723 435.11C255.906 437.839 264.094 434.823 268.116 428.071L283.63 401.209C286.934 395.606 293.111 392.302 299.575 392.59C308.769 393.021 318.106 392.733 327.3 391.728C333.764 391.01 339.941 393.739 343.676 399.054L361.632 425.486C366.085 431.95 374.56 434.248 381.599 431.088L400.561 422.325L419.523 413.563C426.705 410.259 430.44 402.358 428.429 394.745L420.385 364.865C418.661 358.545 420.816 351.937 425.556 347.627C432.451 341.307 438.915 334.555 444.661 327.373C448.684 322.345 455.148 319.903 461.325 321.052L492.64 327.086C500.398 328.522 507.867 324.213 510.597 317.03L517.923 297.494L525.249 277.957C527.978 270.775 524.962 262.587 518.21 258.565L491.204 243.338C485.458 240.178 482.154 233.857 482.441 227.249C482.872 218.056 482.585 208.862 481.579 199.525C480.861 193.061 483.591 186.884 488.906 183.149L515.337 165.193C521.801 160.739 524.1 152.264 520.939 145.225L512.177 126.264L503.414 107.302C500.11 100.119 492.209 96.3844 484.596 98.3955L454.717 106.44C448.396 108.164 441.645 106.009 437.335 101.125C430.871 93.7987 423.832 87.3345 416.362 81.4449C411.191 77.4227 408.605 70.9584 409.898 64.4942L415.788 33.6096C417.224 25.8525 412.915 18.3827 405.732 15.6534L386.196 8.32723L366.66 1.0011C359.477 -1.72824 351.289 1.2884 347.267 8.03993L331.466 35.3333C328.162 40.9357 322.128 44.096 315.664 43.8087C306.327 43.3777 296.99 43.665 287.652 44.8142C281.188 45.5325 274.868 42.8031 271.276 37.3444L253.608 11.3439C249.298 5.02329 240.966 2.58125 233.928 5.45424L214.966 14.2169L196.435 23.1231C189.253 26.4271 185.518 34.3278 187.672 41.9412L195.86 72.2513C197.584 78.4282 195.573 85.1797 190.689 89.4892C183.794 95.8098 177.33 102.705 171.584 110.031C167.561 115.059 161.097 117.645 154.777 116.352L123.748 110.462C115.991 109.026 108.521 113.335 105.792 120.518L98.466 140.054L91.1399 159.59C88.4106 166.773 91.4272 174.961 98.1787 178.983L125.472 194.784C131.074 198.088 134.235 204.122 133.947 210.586C133.517 219.923 133.804 229.26 134.953 238.597C135.671 245.062 132.942 251.382 127.483 254.974L101.626 272.355C95.1621 276.808 92.8637 285.284 96.024 292.322L104.787 311.284L113.549 330.246C116.853 337.428 124.754 341.163 132.367 339.152L162.677 330.964C168.998 329.24 175.606 331.395 179.915 336.135C185.949 342.743 192.413 348.92 199.308 354.379ZM268.691 135.026C314.659 113.191 369.676 132.728 391.511 178.696C413.346 224.663 393.809 279.681 347.842 301.516C301.874 323.351 246.856 303.814 225.021 257.846C203.187 211.879 222.723 156.861 268.691 135.026Z" fill="#FFC000" fill-opacity="0.25"/>
<path d="M605.405 457.089L593.339 453.21C590.753 452.348 589.029 450.193 588.598 447.608C588.024 443.873 587.018 440.138 585.869 436.547C585.007 434.105 585.582 431.232 587.449 429.364L596.499 419.883C598.654 417.585 598.941 413.994 597.074 411.408L591.902 404.513L586.731 397.618C584.863 395.032 581.416 394.314 578.543 395.75L567.338 401.64C564.896 402.933 562.023 402.645 559.868 401.065C556.852 398.911 553.548 396.899 550.1 395.176C547.802 394.026 546.222 391.584 546.078 388.999L545.791 375.927C545.647 372.766 543.349 370.037 540.188 369.606L531.713 368.313L523.238 367.02C520.077 366.589 517.061 368.457 516.055 371.473L512.177 383.54C511.315 386.126 509.16 387.993 506.431 388.424C502.552 388.999 498.674 390.004 494.939 391.297C492.353 392.159 489.624 391.584 487.613 389.717L478.275 380.811C475.977 378.656 472.386 378.369 469.8 380.236L462.905 385.407L456.01 390.579C453.424 392.446 452.706 395.894 454.142 398.767L460.032 410.259C461.181 412.557 461.038 415.43 459.457 417.585C457.303 420.745 455.292 424.049 453.568 427.497C452.419 429.939 449.977 431.375 447.391 431.519L434.462 431.806C431.302 431.95 428.573 434.248 427.998 437.265L426.705 445.74L425.412 454.216C424.981 457.376 426.849 460.393 429.866 461.398L442.219 465.277C444.805 466.139 446.529 468.293 446.96 470.879C447.534 474.757 448.54 478.349 449.833 482.084C450.695 484.526 450.12 487.399 448.253 489.266L439.346 498.603C437.192 500.902 436.904 504.493 438.772 507.079L443.943 513.974L449.115 520.869C450.982 523.455 454.43 524.173 457.303 522.736L468.795 516.847C471.093 515.698 473.966 515.841 476.121 517.421C479.281 519.576 482.585 521.587 486.033 523.311C488.475 524.46 489.911 526.902 490.055 529.488L490.342 542.416C490.486 545.577 492.784 548.306 495.944 548.737L504.42 550.03L512.895 551.323C516.055 551.754 519.072 549.886 520.077 546.87L523.956 534.659C524.818 532.074 526.973 530.35 529.558 529.775C533.15 529.201 536.741 528.195 540.188 527.046C542.774 526.184 545.503 526.759 547.371 528.626L556.852 537.676C559.15 539.831 562.741 540.118 565.327 538.251L572.222 533.079L579.117 527.908C581.703 526.04 582.421 522.593 580.985 519.72L575.095 508.371C573.802 505.929 574.09 503.2 575.67 500.902C577.825 497.885 579.836 494.581 581.56 491.134C582.709 488.835 585.151 487.255 587.736 487.111L600.809 486.824C603.969 486.68 606.698 484.382 607.129 481.222L608.422 472.746L609.715 464.271C610.433 461.111 608.422 458.094 605.405 457.089ZM555.272 464.127C552.542 484.813 533.581 499.465 512.895 496.736C492.209 494.007 477.557 475.045 480.287 454.359C483.016 433.674 501.978 419.021 522.663 421.751C543.349 424.48 558.001 443.442 555.272 464.127Z" fill="#FFC000" fill-opacity="0.25"/>
<path d="M440.639 545.72L422.396 542.56C418.517 541.842 415.501 539.112 414.351 535.378C412.771 530.063 410.616 524.891 408.174 520.007C406.451 516.559 406.738 512.537 409.036 509.377L420.097 494.006C422.827 490.272 422.396 485.1 419.092 481.796L410.329 473.034L401.567 464.271C398.263 460.967 393.091 460.536 389.356 463.122L374.273 473.896C371.113 476.194 366.947 476.338 363.356 474.614C358.472 472.028 353.444 469.873 348.129 468.15C344.538 466.857 341.808 463.84 341.09 460.105L337.93 441.287C337.212 436.69 333.189 433.243 328.593 433.243H316.095H303.598C298.857 433.243 294.979 436.547 294.117 441.143L290.956 459.243C290.238 463.122 287.509 466.138 283.63 467.288C278.028 469.011 272.713 471.166 267.685 473.752C264.238 475.476 260.072 475.332 256.911 473.034L241.685 462.116C237.95 459.387 232.778 459.818 229.474 463.122L220.712 471.884L211.949 480.647C208.645 483.951 208.214 489.122 210.8 492.857L221.574 508.228C223.728 511.388 224.016 515.554 222.292 518.858C219.706 523.742 217.551 528.913 215.828 534.228C214.678 537.963 211.518 540.549 207.783 541.267L189.252 544.284C184.799 545.002 181.352 549.024 181.064 553.477V565.975V578.472C181.064 583.213 184.368 587.091 188.965 587.953L207.496 591.114C211.231 591.832 214.391 594.561 215.54 598.152C217.264 603.467 219.275 608.639 221.861 613.667C223.585 617.114 223.297 621.28 221.143 624.297L210.225 639.524C207.496 643.258 207.927 648.43 211.231 651.734L219.993 660.496L228.756 669.259C232.06 672.563 237.231 672.994 240.966 670.408L256.337 659.634C259.497 657.48 263.663 657.192 266.967 658.916C271.851 661.502 277.022 663.657 282.337 665.38C286.072 666.53 288.658 669.69 289.376 673.425L292.393 691.956C293.111 696.552 297.133 700 301.73 700H314.228H326.725C331.466 700 335.344 696.696 336.206 692.099L339.366 673.712C340.085 669.834 342.814 666.817 346.549 665.668C351.577 664.088 356.461 662.077 361.201 659.634C364.649 657.911 368.814 658.198 371.831 660.353L387.202 671.414C390.936 674.143 396.108 673.712 399.412 670.408L408.174 661.646L416.937 652.883C420.241 649.579 420.672 644.408 418.086 640.673L407.456 625.59C405.158 622.429 405.014 618.263 406.882 614.816C409.467 609.932 411.622 604.904 413.346 599.589C414.639 595.998 417.655 593.268 421.39 592.55L440.208 589.39C444.805 588.672 448.253 584.649 448.253 580.053V567.555V555.058C448.684 550.461 445.236 546.439 440.639 545.72ZM315.52 621.28C285.21 621.567 260.359 597.147 260.072 566.837C259.784 536.527 284.205 511.675 314.515 511.388C344.825 511.101 369.676 535.521 369.964 565.831C370.251 596.141 345.831 620.993 315.52 621.28Z" fill="#FFC000" fill-opacity="0.25"/>
</g>
<defs>
<clipPath id="clip0">
<rect width="700" height="700" fill="white"/>
</clipPath>
</defs>
</svg>
